<?xml version="1.0" encoding="UTF-8"?>
<svg version="1.1" xmlns="http://www.w3.org/2000/svg" width="512" height="512">
<path d="M0 0 C7.51182707 5.35576068 11.49757585 11.83180135 13.55859375 20.82421875 C14.68860895 30.13400304 12.90767239 37.8665876 7.49609375 45.51171875 C2.74451653 51.28437959 -3.20882211 55.01607272 -10.44140625 56.82421875 C-10.44140625 80.58421875 -10.44140625 104.34421875 -10.44140625 128.82421875 C-6.48140625 127.17421875 -2.52140625 125.52421875 1.55859375 123.82421875 C13.92435574 120.28250979 26.11232802 119.44896025 38.55859375 122.82421875 C38.69394531 122.20675781 38.82929688 121.58929688 38.96875 120.953125 C40.7661109 113.88207043 43.71203831 109.21686495 48.55859375 103.82421875 C49.47318359 102.77041016 49.47318359 102.77041016 50.40625 101.6953125 C58.18959441 93.27267902 68.91873246 87.6780858 80.40396118 86.54301453 C83.48200067 86.43445668 86.54898713 86.4091963 89.62890625 86.41796875 C90.74997772 86.40713257 91.87104919 86.39629639 93.02609253 86.38513184 C97.77988786 86.33960414 102.53362356 86.32780218 107.28759766 86.31298828 C110.77656152 86.29724859 114.26507784 86.26424913 117.75390625 86.23046875 C119.35106979 86.23500061 119.35106979 86.23500061 120.98049927 86.23962402 C129.55903778 86.15359099 136.43192288 84.64453846 142.89453125 78.68359375 C148.28503869 72.66039765 151.43219457 65.54640526 153.55859375 57.82421875 C152.27984375 57.51484375 151.00109375 57.20546875 149.68359375 56.88671875 C142.70653074 54.53898665 136.89069157 49.67218015 133.07421875 43.375 C129.13096635 34.73127645 128.14405348 26.34662027 131.12109375 17.19921875 C134.54528595 8.69280444 140.37458492 2.85904945 148.55859375 -1.17578125 C157.22938729 -4.61137869 166.28528892 -4.11273479 174.84765625 -0.62890625 C183.063332 3.77488536 188.83695349 9.88670332 191.55859375 18.82421875 C193.85854201 26.68237532 192.69299051 34.39628982 189.55859375 41.82421875 C185.46015329 49.02521694 178.70163184 55.56226372 170.55859375 57.82421875 C169.23859375 57.82421875 167.91859375 57.82421875 166.55859375 57.82421875 C166.53796875 59.02046875 166.51734375 60.21671875 166.49609375 61.44921875 C165.18389155 72.86358034 157.85147561 83.26755589 149.55859375 90.82421875 C139.17166873 99.06508488 129.07298904 99.94813871 116.25390625 100 C114.03905295 100.02319353 111.82420916 100.04731068 109.609375 100.07226562 C106.14462851 100.10735974 102.68023467 100.13673176 99.21533203 100.15014648 C95.85276531 100.16568515 92.4912046 100.20592129 89.12890625 100.25 C87.59098923 100.24713737 87.59098923 100.24713737 86.02200317 100.24421692 C75.92475093 100.41451686 67.99272205 104.01744305 60.55859375 110.82421875 C56.09471273 115.69207091 53.57049147 120.56498139 51.55859375 126.82421875 C52.23664063 127.16453125 52.9146875 127.50484375 53.61328125 127.85546875 C71.96204051 137.41105529 85.33892583 152.17634175 91.74365234 172.02172852 C94.25835681 180.66950941 94.8331405 189.04466554 94.68359375 198.01171875 C94.67457031 199.05908203 94.66554688 200.10644531 94.65625 201.18554688 C94.6329945 203.73202389 94.60031944 206.27798906 94.55859375 208.82421875 C95.6878125 208.68113281 95.6878125 208.68113281 96.83984375 208.53515625 C116.85396783 206.44630349 135.59201751 211.25720977 151.68359375 223.57421875 C167.13671859 236.5333266 177.01632693 253.71719939 179.55859375 273.82421875 C180.95516389 295.56406809 176.33488948 316.04371767 162.1484375 332.92578125 C148.43742498 348.27053433 131.1064948 357.11516697 110.55859375 358.82421875 C107.76839864 358.94244307 104.9854809 358.95177139 102.19311523 358.93774414 C101.41151535 358.93789017 100.62991547 358.93803619 99.82463074 358.93818665 C97.27628672 358.93749758 94.72801853 358.92975302 92.1796875 358.921875 C90.39893127 358.92000724 88.61817453 358.91858503 86.8374176 358.91758728 C82.1768143 358.91379032 77.51624272 358.90398447 72.85565186 358.8928833 C68.08931914 358.88260818 63.32298125 358.87807665 58.55664062 358.87304688 C49.22394448 358.86235938 39.89127177 358.84531728 30.55859375 358.82421875 C30.61108355 362.78357831 30.70629902 366.74085757 30.80859375 370.69921875 C30.82277344 371.8078125 30.83695312 372.91640625 30.8515625 374.05859375 C31.1359567 383.72799666 33.1230745 392.10466364 39.84375 399.35546875 C46.0312679 404.6550285 52.86781281 405.97204362 60.79370117 406.02954102 C61.63294632 406.03944061 62.47219147 406.04934021 63.33686829 406.05953979 C66.11257093 406.09114271 68.8882907 406.11590749 71.6640625 406.140625 C73.5879206 406.16119557 75.51177418 406.18219207 77.43562317 406.20359802 C82.50068511 406.25880807 87.56578777 406.30822209 92.63092041 406.35644531 C97.7989057 406.4066681 102.96683183 406.46235011 108.13476562 406.51757812 C118.27599113 406.62514666 128.41726799 406.72659457 138.55859375 406.82421875 C138.85475082 405.89298943 138.85475082 405.89298943 139.15689087 404.94294739 C139.4204538 404.13008774 139.68401672 403.31722809 139.95556641 402.47973633 C140.21487946 401.67329178 140.4741925 400.86684723 140.74136353 400.03596497 C143.05238376 393.78143583 149.50712707 387.7986677 155.41015625 384.921875 C163.53100044 381.71783284 172.63478566 381.44699033 180.87109375 384.38671875 C190.17927077 388.69326169 196.25026621 395.77859901 199.87109375 405.26171875 C201.55196582 413.97169222 200.83861967 422.34808353 196.19921875 430.09375 C190.68520888 437.75367608 183.96925262 441.99260193 174.93359375 444.57421875 C166.01479356 445.51303982 157.60348178 444.03460204 149.89453125 439.12890625 C144.46357451 434.64246373 140.90983984 429.47623659 138.55859375 422.82421875 C138.55859375 421.83421875 138.55859375 420.84421875 138.55859375 419.82421875 C137.49529846 419.8331012 136.43200317 419.84198364 135.33648682 419.85113525 C125.27444239 419.93252032 115.21246548 419.99232708 105.15016556 420.03146744 C99.97806234 420.05226698 94.80622665 420.08044396 89.63427734 420.12597656 C84.63514355 420.16970807 79.63626571 420.19341314 74.63695526 420.20372772 C72.73772915 420.21107037 70.8385157 420.22540778 68.93939972 420.24713898 C54.78404447 420.4025494 42.59931062 419.71784815 31.55859375 409.82421875 C30.94242187 409.31117188 30.32625 408.798125 29.69140625 408.26953125 C23.77144391 402.95935044 21.03705329 396.25959738 18.55859375 388.82421875 C18.47480747 386.54036705 18.4512946 384.25411775 18.4609375 381.96875 C18.46343506 380.75807861 18.46593262 379.54740723 18.46850586 378.30004883 C18.48216187 375.99170044 18.48216187 375.99170044 18.49609375 373.63671875 C18.51671875 368.74859375 18.53734375 363.86046875 18.55859375 358.82421875 C-0.58140625 358.82421875 -19.72140625 358.82421875 -39.44140625 358.82421875 C-39.11140625 381.92421875 -38.78140625 405.02421875 -38.44140625 428.82421875 C-35.14140625 430.14421875 -31.84140625 431.46421875 -28.44140625 432.82421875 C-21.38837529 437.49072564 -16.73887238 443.67600202 -14.44140625 451.82421875 C-13.43296664 462.37765655 -14.60156922 470.56670656 -20.12890625 479.57421875 C-28.31191311 487.53606326 -37.09462866 490.90744695 -48.44140625 490.82421875 C-58.53187725 489.45919482 -65.90787807 484.53646395 -72.1875 476.6484375 C-77.19705798 469.36038898 -77.29731031 461.46106883 -76.44140625 452.82421875 C-74.77582534 445.60670147 -71.08997727 439.62017527 -65.44140625 434.82421875 C-61.29001316 432.28795732 -57.05148644 430.36091215 -52.44140625 428.82421875 C-51.94640625 394.17421875 -51.94640625 394.17421875 -51.44140625 358.82421875 C-66.95140625 358.82421875 -82.46140625 358.82421875 -98.44140625 358.82421875 C-98.395 364.11066406 -98.34859375 369.39710938 -98.30078125 374.84375 C-98.28032048 378.21160843 -98.2610632 381.57938921 -98.24609375 384.94726562 C-98.22226895 390.28198346 -98.19421759 395.61642423 -98.13964844 400.95092773 C-98.09588719 405.25628871 -98.07220588 409.56135218 -98.06189728 413.86691856 C-98.05455981 415.50182459 -98.04023277 417.13671606 -98.01848602 418.77149391 C-97.84108379 432.67213489 -99.70340053 443.30552903 -109.44140625 453.82421875 C-117.01898082 461.50465632 -126.30130121 465.79710078 -137.16186523 466.06472778 C-138.92040655 466.07045624 -140.67900586 466.06536663 -142.4375 466.05126953 C-143.88765755 466.05170761 -143.88765755 466.05170761 -145.36711121 466.05215454 C-148.53780335 466.05076988 -151.70825555 466.03524949 -154.87890625 466.01953125 C-157.08707552 466.01579805 -159.29524645 466.01295253 -161.50341797 466.01095581 C-167.29677964 466.00334356 -173.09003999 465.98371579 -178.88336182 465.96154785 C-184.8024356 465.94103747 -190.72152587 465.93194301 -196.640625 465.921875 C-208.24092977 465.9004676 -219.84115956 465.86636081 -231.44140625 465.82421875 C-231.65506836 467.23779663 -231.65506836 467.23779663 -231.87304688 468.67993164 C-233.24493009 476.26948659 -238.87339282 481.99876595 -244.96484375 486.37890625 C-252.92221933 491.02280051 -261.52618082 491.85351559 -270.44140625 489.82421875 C-279.21267748 486.69931868 -285.92134408 482.1577135 -290.4921875 473.93359375 C-294.18711051 465.87831136 -294.60050308 457.6474936 -291.87890625 449.26171875 C-288.6942818 441.24409029 -282.96492446 435.03807135 -275.44140625 430.82421875 C-268.35914146 427.78896241 -259.25368402 427.56386029 -251.81640625 429.51171875 C-249.54615542 430.4576566 -247.53111437 431.52924518 -245.44140625 432.82421875 C-244.73242188 433.24832031 -244.0234375 433.67242187 -243.29296875 434.109375 C-237.34500375 438.07837023 -233.37623685 443.39186763 -231.88452148 450.46459961 C-231.73829346 451.24327393 -231.59206543 452.02194824 -231.44140625 452.82421875 C-218.74044016 452.83254483 -206.03997767 452.80851416 -193.33916092 452.74394035 C-187.44068164 452.71495147 -181.54259784 452.69682736 -175.64404297 452.70410156 C-169.9443656 452.7107213 -164.24546791 452.6880588 -158.54595184 452.64566422 C-156.37885058 452.6345801 -154.2116698 452.6337901 -152.04456329 452.64379501 C-133.87333574 452.90420666 -133.87333574 452.90420666 -118.51275635 444.01583862 C-110.75180595 434.79295119 -110.97746099 423.19218691 -110.9296875 411.75390625 C-110.91281025 410.22118724 -110.89465599 408.68848182 -110.87528992 407.15579224 C-110.82811382 403.15450284 -110.79809633 399.15326854 -110.77185059 395.15179443 C-110.74188003 391.05551274 -110.69540711 386.95942033 -110.65039062 382.86328125 C-110.56472688 374.85035415 -110.49721909 366.83740916 -110.44140625 358.82421875 C-111.45236862 358.82865997 -112.46333099 358.8331012 -113.50492859 358.837677 C-123.08107475 358.87840482 -132.6572031 358.9082898 -142.23341656 358.92784309 C-147.15540392 358.93823389 -152.07732078 358.95230611 -156.99926758 358.97509766 C-161.75848384 358.99699512 -166.51763273 359.00882265 -171.27689552 359.01397324 C-173.08315909 359.01763889 -174.88941941 359.024796 -176.69565392 359.03567886 C-202.06626555 359.18231623 -224.0145651 354.73142697 -242.7578125 336.50390625 C-243.64339844 335.61960937 -244.52898437 334.7353125 -245.44140625 333.82421875 C-246.44494141 332.83808594 -246.44494141 332.83808594 -247.46875 331.83203125 C-261.61919209 316.87940991 -268.07686685 295.14174907 -267.625 274.9140625 C-266.24028805 251.60965495 -256.76944857 231.61641558 -240.0390625 215.51171875 C-227.00277864 204.40593283 -209.35815082 196.52804653 -192.06640625 196.76171875 C-191.19242187 196.77074219 -190.3184375 196.77976563 -189.41796875 196.7890625 C-188.43957031 196.80646484 -188.43957031 196.80646484 -187.44140625 196.82421875 C-187.47621094 195.99921875 -187.51101562 195.17421875 -187.546875 194.32421875 C-188.16903698 167.77864094 -177.98490712 143.58275782 -159.8828125 124.296875 C-143.35038287 107.40601871 -119.85829593 96.15504798 -96.06640625 95.76953125 C-92.85722548 95.76261491 -89.65025094 95.78019497 -86.44140625 95.82421875 C-86.80035079 84.21236275 -88.74991247 76.61116187 -96.171875 67.6484375 C-102.49737401 62.56408631 -109.16169925 61.23120012 -117.09204102 61.27832031 C-118.46926582 61.2628138 -118.46926582 61.2628138 -119.87431335 61.24699402 C-122.87732922 61.21774417 -125.87966587 61.21607062 -128.8828125 61.21484375 C-130.97746553 61.19985008 -133.07210679 61.18312045 -135.16673279 61.16473389 C-140.65589972 61.12118166 -146.14490719 61.10108811 -151.63421631 61.08599854 C-157.24517193 61.06638372 -162.85595644 61.02441863 -168.46679688 60.984375 C-179.4582804 60.90920422 -190.44972538 60.85883325 -201.44140625 60.82421875 C-201.58312256 61.76587891 -201.72483887 62.70753906 -201.87084961 63.67773438 C-203.03973938 70.12388389 -207.25997639 75.18997851 -212.31640625 79.19921875 C-220.6923182 84.86712909 -228.33738485 85.82551817 -238.44140625 84.82421875 C-246.57510469 82.94721142 -253.3115435 78.43336986 -258.01171875 71.51171875 C-262.89036481 63.0368136 -264.16647039 53.8387868 -261.79296875 44.1875 C-258.30908402 35.65644892 -251.79630954 28.70439855 -243.44140625 24.82421875 C-235.80488113 21.96409698 -227.3840687 22.12737879 -219.69921875 24.765625 C-210.81490262 28.85673106 -205.09755145 34.78213923 -201.44140625 43.82421875 C-201.11140625 44.81421875 -200.78140625 45.80421875 -200.44140625 46.82421875 C-199.3029425 46.82786438 -198.16447876 46.83151001 -196.99151611 46.83526611 C-186.22286765 46.87232876 -175.45450217 46.93022403 -164.68606949 47.00812149 C-159.15089035 47.04750341 -153.6158681 47.07973736 -148.08056641 47.09521484 C-142.73112269 47.11044265 -137.38211055 47.14499645 -132.0328598 47.19252777 C-129.99974078 47.20727861 -127.96656012 47.21525612 -125.93338776 47.2161026 C-110.54978133 47.22893986 -97.54761069 48.20967164 -85.44140625 58.82421875 C-83.11476166 61.32636455 -81.22956276 63.91705864 -79.44140625 66.82421875 C-79.05210937 67.43910156 -78.6628125 68.05398437 -78.26171875 68.6875 C-73.24484941 77.53110544 -73.08987716 87.90328676 -73.44140625 97.82421875 C-72.89355469 97.89898437 -72.34570312 97.97375 -71.78125 98.05078125 C-53.28956824 101.11769432 -39.21776042 110.5785706 -25.44140625 122.82421875 C-25.44140625 101.04421875 -25.44140625 79.26421875 -25.44140625 56.82421875 C-28.41140625 55.50421875 -31.38140625 54.18421875 -34.44140625 52.82421875 C-41.94296159 48.50128855 -46.45356499 42.07656505 -48.81640625 33.69921875 C-50.40774416 23.83292369 -49.27912122 15.35400155 -43.37890625 7.07421875 C-32.65266714 -5.79726819 -14.27176583 -8.30744578 0 0 Z M-32.31640625 14.82421875 C-35.90374885 19.88870242 -37.36241845 23.4807472 -36.44140625 29.82421875 C-34.53284373 35.71256789 -31.51507555 39.37412362 -26.44140625 42.82421875 C-21.35320864 45.31178203 -16.83938404 45.09599362 -11.44140625 43.82421875 C-6.27373786 42.01914496 -2.98794427 38.92309361 -0.33203125 34.16015625 C1.71874594 28.78136345 1.68188694 23.59444556 -0.48046875 18.26171875 C-3.89742304 12.45862319 -7.9596308 9.54132067 -14.44140625 7.82421875 C-21.5775438 6.82265558 -27.63635636 9.40086682 -32.31640625 14.82421875 Z M145.12109375 17.94921875 C142.61680127 22.55711691 141.89290524 26.63739574 142.55859375 31.82421875 C144.60793429 37.9833781 147.78125566 41.60462906 153.38671875 44.8984375 C158.20614981 46.95276333 163.990557 46.753727 168.87890625 44.984375 C173.93947318 42.12698265 177.48390237 38.27742133 179.55859375 32.82421875 C180.57555741 27.58102084 180.15890571 23.20820055 177.55859375 18.51171875 C173.98305095 13.58785673 169.94392647 10.42627501 163.87890625 9.34765625 C155.55161051 8.90937753 150.22010842 11.41202045 145.12109375 17.94921875 Z M-246.31640625 42.69921875 C-249.72779097 47.71596098 -251.05908 51.61817622 -250.0390625 57.73828125 C-248.53055088 63.00328258 -245.74701431 67.34160967 -241.06640625 70.26171875 C-234.55268446 73.06935745 -230.05964264 73.25764946 -223.515625 70.7578125 C-217.89497843 68.22799229 -215.36857594 64.85508937 -213.10546875 59.26171875 C-211.61670132 53.79706652 -212.58715118 49.44120156 -215.19140625 44.51171875 C-219.8145827 38.98959132 -224.06093904 36.15672372 -231.25390625 35.44921875 C-237.29870177 35.63170314 -242.29695117 38.22006059 -246.31640625 42.69921875 Z M-156.44140625 139.82421875 C-169.77148031 156.80330749 -174.74918613 176.36825837 -174.97583008 197.68725586 C-175.00519653 199.19751343 -175.00519653 199.19751343 -175.03515625 200.73828125 C-175.04224609 201.64529785 -175.04933594 202.55231445 -175.05664062 203.48681641 C-175.44140625 205.82421875 -175.44140625 205.82421875 -176.70141602 207.61669922 C-178.85084696 209.10836267 -180.0847272 209.20572596 -182.6875 209.23046875 C-183.51894531 209.25004639 -184.35039062 209.26962402 -185.20703125 209.28979492 C-186.08875 209.30115479 -186.97046875 209.31251465 -187.87890625 209.32421875 C-208.48651905 210.00954681 -223.96873105 217.59717394 -238.30859375 232.38671875 C-250.85551442 246.72605666 -255.68557098 264.99056722 -254.63232422 283.73486328 C-252.90685657 302.6179223 -243.28267923 319.74554358 -228.9140625 331.9453125 C-217.79812153 340.39202278 -204.97473932 345.93687489 -190.87963676 345.95564651 C-189.79175484 345.95948766 -188.70387291 345.9633288 -187.58302486 345.96728635 C-186.39860242 345.96641987 -185.21417999 345.96555338 -183.99386597 345.96466064 C-182.72722142 345.96763177 -181.46057688 345.97060289 -180.15554917 345.97366405 C-176.64637909 345.98171134 -173.13722949 345.98352235 -169.62805128 345.98426151 C-165.84056522 345.98611604 -162.05308969 345.99366541 -158.26560974 346.00039673 C-149.98649919 346.01396466 -141.70739349 346.02000243 -133.42827368 346.02440739 C-128.25578172 346.02717254 -123.08329163 346.03141041 -117.91080093 346.03591156 C-103.58129176 346.04810246 -89.25178407 346.05840197 -74.92226982 346.06178665 C-73.54722338 346.062116 -73.54722338 346.062116 -72.14439822 346.062452 C-70.76611615 346.06277942 -70.76611615 346.06277942 -69.35999 346.06311345 C-67.49813135 346.06355691 -65.63627271 346.06400348 -63.77441406 346.06445312 C-62.8508736 346.06467455 -61.92733314 346.06489598 -60.97580661 346.06512412 C-46.01749683 346.06907055 -31.05923581 346.08652063 -16.10094486 346.10981265 C-0.73252638 346.13354952 14.63586766 346.14598957 30.00430477 346.14715457 C38.62866108 346.14807004 47.25295386 346.15379009 55.87729263 346.17197418 C63.22237226 346.18740675 70.56736871 346.19247708 77.91246147 346.18423608 C81.65674517 346.18034066 85.40086154 346.18120463 89.14512444 346.19529343 C93.21325313 346.21046018 97.28100802 346.20213311 101.34915161 346.19171143 C102.52018972 346.19976783 103.69122782 346.20782423 104.89775193 346.21612477 C121.67595872 346.11593182 136.31517042 340.38297696 148.55859375 328.82421875 C161.14827633 315.94464217 167.35833979 299.72692245 167.55859375 281.82421875 C166.59054519 265.79763699 160.40239768 249.07706365 148.55859375 237.82421875 C135.49260308 226.75362166 120.99577682 220.10502101 103.609375 220.51953125 C99.12440104 220.96745439 94.85236045 222.04566239 90.48828125 223.14453125 C86.94070279 223.96756945 84.16505537 224.3050803 80.55859375 223.82421875 C77.95070287 219.91238243 78.68511298 217.19866681 79.55859375 212.82421875 C79.89761719 211.61765625 80.23664063 210.41109375 80.5859375 209.16796875 C85.00768317 191.68603487 80.21399166 175.01165293 71.55859375 159.82421875 C63.54775065 147.2330583 50.96827934 139.05360788 36.74609375 134.94921875 C20.54209835 131.42569371 5.11224336 134.35700772 -8.85546875 143.140625 C-10.57937183 144.26298486 -12.28305873 145.41702351 -13.96484375 146.6015625 C-16.44140625 147.82421875 -16.44140625 147.82421875 -18.98828125 147.82421875 C-22.28795093 146.47913047 -23.56108986 144.66464061 -25.69140625 141.82421875 C-39.65830641 124.07318307 -58.57831477 111.5551507 -81.44140625 108.82421875 C-110.9019752 106.61691927 -137.10475483 117.1348146 -156.44140625 139.82421875 Z M156.40625 399.70703125 C151.84272763 404.76516852 150.17439305 408.60212592 150.28515625 415.4140625 C150.8322307 420.23613297 152.68823976 424.11114453 156.27734375 427.3984375 C161.84633525 431.51618757 166.70236451 432.47103283 173.55859375 431.82421875 C179.35604981 429.7059175 183.00172454 426.18636514 186.37109375 421.07421875 C188.18973775 416.09687727 188.74152603 411.58439408 186.609375 406.609375 C183.31254974 401.02453221 179.70933283 397.24697521 173.37109375 395.38671875 C167.04934152 394.240178 161.29482253 395.43063931 156.40625 399.70703125 Z M-278.09375 449.88671875 C-281.08352662 454.18506427 -280.89940581 458.79486514 -280.44140625 463.82421875 C-278.33704256 470.13730981 -273.64733749 474.06095657 -267.94140625 477.19921875 C-261.21913705 478.87978605 -256.63912364 477.51015571 -250.68359375 474.32421875 C-246.60418045 471.59513389 -244.98877096 468.46631287 -243.44140625 463.82421875 C-242.92561872 458.91155396 -242.86696456 454.99519605 -245.06640625 450.51171875 C-249.96855884 444.96454608 -254.36874112 441.49167469 -261.81640625 440.51171875 C-269.23587049 441.3949883 -273.33973753 444.16890877 -278.09375 449.88671875 Z M-60.37890625 447.44921875 C-63.35976131 452.32698157 -65.08845281 457.31429638 -64.02734375 463.0703125 C-61.87270213 469.33297963 -58.43319346 473.82832514 -52.44140625 476.82421875 C-47.33845407 478.69530122 -42.22932203 478.43320498 -37.31640625 476.19921875 C-32.51875782 473.56795033 -29.91448243 470.23470705 -27.06640625 465.57421875 C-25.78678736 459.94389564 -26.53823958 454.66528928 -29.06640625 449.51171875 C-33.267867 444.75743422 -36.90625153 441.75708439 -43.31640625 440.76171875 C-50.30018466 440.40030556 -55.25062272 442.8664973 -60.37890625 447.44921875 Z " fill="#000000" transform="translate(302.44140625,13.17578125)"/>
<path d="M0 0 C0.67160156 0.07347656 1.34320313 0.14695313 2.03515625 0.22265625 C5.38244593 1.48046736 6.66904099 4.38750819 8.18579102 7.49487305 C8.60014404 8.46980713 9.01449707 9.44474121 9.44140625 10.44921875 C9.92561035 11.57884033 10.40981445 12.70846191 10.90869141 13.87231445 C11.29556122 14.78480453 11.29556122 14.78480453 11.69024658 15.71572876 C13.114186 19.07315401 14.55680887 22.4225694 15.99609375 25.7734375 C16.30647583 26.49745255 16.61685791 27.22146759 16.93664551 27.96742249 C20.54041403 36.36465934 24.21715483 44.72969641 27.89553833 53.0944519 C29.05979895 55.74385348 30.22149673 58.39436554 31.38256836 61.04516602 C34.7247877 68.67014016 38.08072839 76.28662411 41.53125 83.86328125 C42.05187012 85.01530029 42.57249023 86.16731934 43.10888672 87.35424805 C44.04219095 89.41413231 44.98567841 91.46944998 45.94189453 93.51879883 C48.2318236 98.59223137 49.58304331 102.35501754 48.9375 107.9375 C47.8125 109.875 47.8125 109.875 45.9375 110.9375 C43 111.4375 43 111.4375 39.9375 110.9375 C36.71470872 107.50061544 34.81317269 103.90096065 32.921875 99.61328125 C32.12910156 97.82374023 32.12910156 97.82374023 31.3203125 95.99804688 C31.05250977 95.3830835 30.78470703 94.76812012 30.50878906 94.13452148 C29.68373688 92.24136519 28.84671973 90.3538487 28.0078125 88.46679688 C23.9375 79.21836515 23.9375 79.21836515 23.9375 76.9375 C7.4375 77.2675 -9.0625 77.5975 -26.0625 77.9375 C-30.21362159 87.6720457 -30.21362159 87.6720457 -34.34887695 97.41333008 C-34.86925537 98.62400146 -35.38963379 99.83467285 -35.92578125 101.08203125 C-36.19112671 101.71443726 -36.45647217 102.34684326 -36.7298584 102.99841309 C-39.28428478 108.89783799 -39.28428478 108.89783799 -42.0625 110.9375 C-45.21576426 111.33165803 -47.17325568 111.52010835 -49.875 109.75 C-51.46458227 107.32379549 -51.83675947 105.86323558 -52.0625 102.9375 C-51.09735207 100.11409881 -50.06467876 97.54726249 -48.8203125 94.8515625 C-48.28800774 93.65564232 -48.28800774 93.65564232 -47.74494934 92.43556213 C-46.57127159 89.80558163 -45.3793288 87.18429839 -44.1875 84.5625 C-43.36516289 82.72762077 -42.5443 80.89208019 -41.72485352 79.0559082 C-40.02493452 75.24849891 -38.31943406 71.44365994 -36.61083984 67.64013672 C-33.03432278 59.65898685 -29.55736519 51.63488349 -26.07888794 43.61065674 C-23.99649556 38.81301978 -21.90035333 34.02137945 -19.8061676 29.22888184 C-17.90588224 24.87764697 -16.01943259 20.52072208 -14.140625 16.16015625 C-13.34438797 14.33565895 -12.54758417 12.5114088 -11.75 10.6875 C-11.4192749 9.90785889 -11.0885498 9.12821777 -10.74780273 8.32495117 C-8.42333267 3.06340289 -6.22660198 -0.85180875 0 0 Z M-2.0625 20.9375 C-3.80820622 24.79101646 -5.54947135 28.64650319 -7.28710938 32.50366211 C-7.87548924 33.80821259 -8.46496103 35.11227129 -9.05566406 36.41577148 C-9.91779067 38.31877621 -10.77560921 40.22367953 -11.6328125 42.12890625 C-12.14602051 43.26529541 -12.65922852 44.40168457 -13.18798828 45.57250977 C-15.93763376 51.97533752 -18.47455038 58.46762595 -21.0625 64.9375 C-8.1925 64.9375 4.6775 64.9375 17.9375 64.9375 C15.95832086 58.99996258 13.94619186 53.34925323 11.43359375 47.65625 C11.10964127 46.91669067 10.78568878 46.17713135 10.45191956 45.41516113 C9.77413073 43.87156816 9.09425711 42.32888902 8.41235352 40.78710938 C7.36670436 38.41871034 6.33253083 36.04550844 5.29882812 33.671875 C4.63610309 32.16636432 3.9727159 30.6611449 3.30859375 29.15625 C3.00022079 28.44593628 2.69184784 27.73562256 2.37413025 27.00378418 C0.92441533 23.30277237 0.92441533 23.30277237 -2.0625 20.9375 Z " fill="#000000" transform="translate(178.0625,224.0625)"/>
<path d="M0 0 C1.25796135 -0.00430527 1.25796135 -0.00430527 2.54133606 -0.00869751 C4.31573156 -0.01073696 6.09014959 -0.00521537 7.86450195 0.00732422 C10.55537485 0.02327944 13.24472269 0.00752433 15.93554688 -0.01171875 C17.66536786 -0.00973433 19.3951879 -0.00588656 21.125 0 C22.31611641 -0.00910904 22.31611641 -0.00910904 23.53129578 -0.0184021 C32.49656454 0.0921008 40.3043262 2.7324162 46.98828125 8.859375 C52.23482036 14.33737907 54.40961359 20.93265984 54.76953125 28.4609375 C53.90991219 37.4869376 50.58883976 44.99723846 43.578125 50.9375 C34.40068287 57.2782782 23.48692004 56.66692468 12.76953125 56.5234375 C11.47917969 56.51441406 10.18882812 56.50539063 8.859375 56.49609375 C5.70422876 56.4727223 2.54948199 56.43995841 -0.60546875 56.3984375 C-0.59880692 57.04323563 -0.59214508 57.68803375 -0.58528137 58.35237122 C-0.51901077 65.05167667 -0.47370257 71.75088931 -0.44067383 78.45043945 C-0.42556931 80.95210552 -0.40508446 83.45374503 -0.37915039 85.95532227 C-0.342841 89.54710434 -0.325759 93.13853691 -0.3125 96.73046875 C-0.29701614 97.85242142 -0.28153229 98.97437408 -0.26557922 100.13032532 C-0.26523933 101.69160408 -0.26523933 101.69160408 -0.26489258 103.28442383 C-0.25823074 104.20153641 -0.25156891 105.11864899 -0.2447052 106.06355286 C-0.60546875 108.3984375 -0.60546875 108.3984375 -1.93925476 110.19462585 C-4.52496304 112.06275669 -6.51379909 111.78489621 -9.60546875 111.3984375 C-11.66743981 109.84506504 -12.49936919 108.95655505 -12.98578548 106.39785004 C-12.98821538 105.63020576 -12.99064528 104.86256149 -12.9931488 104.07165527 C-13.00305344 103.18838058 -13.01295807 102.3051059 -13.02316284 101.39506531 C-13.01866119 100.42873672 -13.01415955 99.46240814 -13.00952148 98.46679688 C-13.01638474 97.44705276 -13.02324799 96.42730865 -13.03031921 95.37666321 C-13.04865428 91.99836391 -13.0447404 88.62052598 -13.0390625 85.2421875 C-13.04362077 82.89953458 -13.04892528 80.55688301 -13.0549469 78.2142334 C-13.06389099 73.30145845 -13.06143969 68.38884595 -13.05151367 63.47607422 C-13.04001718 57.17060353 -13.06023987 50.86569227 -13.08943081 44.5602951 C-13.10774773 39.72194845 -13.10750943 34.88373699 -13.10179329 30.04536438 C-13.10163955 27.72006953 -13.10772699 25.39476581 -13.12008476 23.06950378 C-13.13490912 19.82266795 -13.1243805 16.57688042 -13.10717773 13.33007812 C-13.1168457 12.36374954 -13.12651367 11.39742096 -13.13647461 10.40180969 C-13.06449284 3.93660826 -13.06449284 3.93660826 -10.81732178 1.30197144 C-7.2873504 -0.14000906 -3.75160508 -0.02832925 0 0 Z M-0.60546875 13.3984375 C-0.60546875 23.2984375 -0.60546875 33.1984375 -0.60546875 43.3984375 C3.68233079 43.49070336 7.96663413 43.57019444 12.25463867 43.61816406 C13.71048709 43.63817572 15.16625619 43.66539427 16.62182617 43.70019531 C27.74932651 44.20474162 27.74932651 44.20474162 37.39453125 39.3984375 C40.35479613 36.2823692 41.63853313 32.65956756 41.89453125 28.3984375 C41.63853313 24.13730744 40.35479613 20.5145058 37.39453125 17.3984375 C30.66067405 11.85290804 22.72337177 12.95079859 14.45703125 13.1484375 C12.9954671 13.16852773 11.53387639 13.18677406 10.07226562 13.203125 C6.51182337 13.24351572 2.95510879 13.32182017 -0.60546875 13.3984375 Z " fill="#000000" transform="translate(257.60546875,223.6015625)"/>
<path d="M0 0 C3.86151368 4.38655304 3.41865907 9.16150144 3.37231445 14.68383789 C3.37596512 15.65349991 3.37961578 16.62316193 3.38337708 17.62220764 C3.39147309 20.82253616 3.37788103 24.0223569 3.36328125 27.22265625 C3.36276257 29.44795227 3.36328057 31.67324875 3.36479187 33.89854431 C3.36470219 38.55979258 3.35428071 43.22086773 3.33618164 47.88208008 C3.31348161 53.85992468 3.31295328 59.83751664 3.31969929 65.81539249 C3.32303878 70.40927887 3.31640973 75.00310753 3.30657005 79.59698296 C3.30271844 81.8014235 3.30156968 84.00587046 3.3031559 86.2103138 C3.30352629 89.28885282 3.2909138 92.36706644 3.2746582 95.44555664 C3.27713562 96.35839417 3.27961304 97.27123169 3.28216553 98.21173096 C3.27508072 99.05141922 3.26799591 99.89110748 3.26069641 100.75624084 C3.25864354 101.48349397 3.25659067 102.21074709 3.25447559 102.96003819 C2.95582412 105.35412871 2.26333742 106.95207094 1 109 C-1.79870027 110.39935013 -3.90498792 110.25265405 -7 110 C-9.06100965 108.45810347 -9.89246501 107.5654053 -10.37752342 105.01502991 C-10.3786545 104.25475998 -10.37978558 103.49449005 -10.38095093 102.71118164 C-10.3894104 101.83632111 -10.39786987 100.96146057 -10.40658569 100.06008911 C-10.400513 99.10311127 -10.39444031 98.14613342 -10.38818359 97.16015625 C-10.39344055 96.15016571 -10.39869751 95.14017517 -10.40411377 94.09957886 C-10.41734123 90.7537296 -10.40856576 87.40835428 -10.3984375 84.0625 C-10.40045744 81.74226795 -10.40336821 79.42203651 -10.40713501 77.10180664 C-10.4115621 72.23610395 -10.40511481 67.37056634 -10.39111328 62.50488281 C-10.37402136 56.26002361 -10.38386046 50.01555118 -10.40183067 43.77070618 C-10.41265803 38.97868929 -10.40922696 34.18676449 -10.4014473 29.39474487 C-10.39944239 27.09178624 -10.40191468 24.78881932 -10.40888596 22.48587036 C-10.41648304 19.27030205 -10.40492025 16.05536491 -10.38818359 12.83984375 C-10.39425629 11.88286591 -10.40032898 10.92588806 -10.40658569 9.93991089 C-10.39389648 8.62762009 -10.39389648 8.62762009 -10.38095093 7.28881836 C-10.37981985 6.52854843 -10.37868877 5.7682785 -10.37752342 4.98497009 C-9.31216105 -0.61656963 -4.91863856 -0.70266265 0 0 Z " fill="#000000" transform="translate(342,225)"/>
</svg>
